<?xml version="1.0" standalone="no"?>
<!DOCTYPE svg PUBLIC "-//W3C//DTD SVG 20010904//EN"
 "http://www.w3.org/TR/2001/REC-SVG-20010904/DTD/svg10.dtd">
<svg version="1.0" xmlns="http://www.w3.org/2000/svg"
 width="626.000000pt" height="626.000000pt" viewBox="0 0 626.000000 626.000000"
 preserveAspectRatio="xMidYMid meet">

<g transform="translate(0.000000,626.000000) scale(0.100000,-0.100000)"
fill="#000000" stroke="none">
<path d="M1746 5689 c-100 -24 -267 -151 -335 -257 -88 -138 -99 -307 -29
-450 78 -157 290 -273 557 -305 l104 -12 -41 -51 c-54 -69 -115 -98 -202 -98
-36 1 -81 8 -101 16 -21 9 -122 69 -225 134 -283 177 -392 216 -599 216 -223
1 -416 -65 -555 -189 -143 -127 -114 -329 74 -518 103 -104 167 -147 361 -240
86 -41 153 -80 150 -85 -3 -6 -22 -10 -41 -10 -42 0 -43 -10 -5 -53 69 -78
222 -129 391 -130 124 -1 196 16 319 74 103 48 169 59 226 35 28 -12 41 -14
44 -5 9 29 66 79 106 95 104 39 217 -21 282 -151 24 -48 107 -324 100 -331 -3
-3 -24 26 -47 65 -25 43 -52 77 -70 86 -16 8 -74 19 -129 23 -80 7 -108 14
-145 36 -25 15 -46 22 -46 17 0 -6 20 -62 44 -125 48 -123 66 -200 66 -279 0
-85 29 -254 82 -472 63 -262 63 -308 1 -456 -53 -124 -83 -247 -90 -369 -7
-114 14 -202 68 -283 50 -76 90 -101 170 -105 57 -4 76 0 126 23 115 54 164
66 312 77 165 12 553 -3 618 -25 49 -16 57 -49 16 -70 -112 -58 -366 -68 -588
-22 -42 9 -78 15 -80 13 -3 -3 47 -339 64 -426 16 -81 43 -132 97 -185 57 -56
84 -66 119 -43 34 22 35 59 9 268 -9 70 -14 138 -10 152 15 60 84 13 215 -148
119 -145 148 -174 226 -221 152 -91 352 -108 484 -40 111 56 171 154 196 325
9 58 22 134 30 169 18 77 70 209 92 233 20 22 57 23 78 2 14 -15 16 -46 13
-268 l-3 -251 28 -47 c15 -26 37 -54 49 -63 61 -42 189 6 282 106 89 96 153
245 191 449 26 133 31 527 10 710 -34 296 -97 550 -206 826 -104 262 -212 427
-364 554 l-85 72 -40 -35 c-50 -42 -117 -64 -233 -76 -105 -10 -127 -26 -159
-113 -38 -105 -45 -86 -28 75 12 118 73 246 131 277 15 9 14 5 -4 -30 -21 -36
-21 -41 -7 -82 21 -59 66 -88 137 -88 89 0 172 57 188 130 16 71 -71 126 -184
117 -57 -4 -63 -3 -47 9 28 20 103 28 146 15 20 -6 54 -22 74 -36 l37 -25 30
23 c26 19 43 22 112 21 74 0 90 -4 167 -41 136 -65 201 -78 380 -78 180 0 239
12 370 77 67 33 102 58 165 122 105 106 326 365 376 441 128 194 77 352 -146
461 -138 67 -225 87 -380 88 -243 1 -385 -61 -699 -304 -131 -101 -162 -115
-271 -115 -78 0 -97 4 -141 27 -56 30 -164 123 -164 142 0 7 28 18 68 25 159
31 323 119 423 229 120 130 147 291 76 446 -48 103 -202 238 -335 292 -110 44
-110 3 0 -142 94 -126 130 -198 136 -272 4 -49 3 -54 -31 -86 -74 -70 -184
-88 -347 -56 -94 17 -403 111 -419 126 -3 2 9 19 26 37 79 83 54 115 -147 192
-120 46 -167 70 -222 116 -26 21 -51 39 -57 39 -6 0 -29 -25 -51 -56 -63 -85
-105 -93 -228 -43 -50 20 -96 32 -131 32 -49 1 -56 -1 -86 -34 -25 -28 -35
-49 -40 -90 -14 -101 -36 -123 -170 -164 -73 -23 -79 -31 -64 -85 3 -12 -25
-19 -146 -37 -82 -12 -204 -25 -271 -29 -107 -6 -129 -4 -190 14 -185 56 -187
193 -5 396 76 84 102 130 84 146 -15 15 -48 18 -87 9z m1760 -614 c68 -33 147
-119 172 -188 11 -28 34 -115 51 -192 47 -211 53 -225 134 -313 40 -43 81 -95
92 -116 l20 -37 -25 -19 c-14 -10 -49 -28 -78 -39 -74 -29 -136 -74 -183 -134
-161 -203 -272 -660 -273 -1117 0 -295 17 -360 132 -484 72 -77 114 -150 131
-227 20 -91 52 -424 45 -479 -19 -159 -86 -202 -224 -146 -134 55 -291 190
-360 311 -52 92 -43 113 126 286 68 70 124 133 124 142 0 24 -25 25 -190 9
-208 -21 -490 -20 -595 2 -86 17 -161 21 -169 8 -11 -18 35 -82 124 -171 111
-112 135 -153 131 -227 -3 -56 -147 -184 -336 -299 -61 -37 -92 -50 -131 -53
-46 -4 -54 -1 -89 29 -21 19 -49 56 -61 84 -39 83 -33 145 37 404 33 123 67
238 76 255 24 46 58 84 125 138 167 133 215 286 204 658 -13 500 -171 855
-433 977 -40 18 -73 36 -73 39 0 11 55 100 96 156 68 94 85 156 93 353 5 116
12 179 22 200 l14 30 95 0 c52 1 118 4 145 9 l50 8 75 -67 c82 -74 174 -125
267 -149 68 -18 173 -21 173 -6 0 6 -4 10 -9 10 -4 0 -39 28 -76 62 -48 44
-76 80 -96 123 -49 102 -33 122 43 58 23 -20 67 -46 95 -59 120 -54 325 -96
389 -80 27 7 25 8 -37 46 -106 63 -192 171 -162 201 5 5 38 16 74 24 87 20
179 12 245 -20z m546 -1282 c24 -22 23 -58 -3 -77 -23 -16 -47 -12 -66 12 -18
22 -16 39 7 62 24 24 38 25 62 3z"/>
<path d="M2405 2398 c-94 -50 -129 -164 -88 -283 25 -74 112 -159 185 -180
120 -34 181 23 129 123 -25 47 -59 85 -144 157 -74 64 -85 88 -68 147 14 46
13 50 -14 36z"/>
<path d="M3420 2344 l0 -56 -103 -102 c-80 -78 -106 -110 -115 -142 -18 -61
-15 -80 14 -103 81 -64 255 36 300 172 20 60 22 154 4 188 -15 30 -59 78 -82
90 -16 9 -18 4 -18 -47z"/>
<path d="M1971 3809 c-30 -10 -63 -26 -73 -36 -42 -38 -7 -128 67 -170 73 -41
179 -23 209 36 35 67 11 128 -61 158 -74 32 -84 33 -142 12z m52 -60 c5 -9 7
-28 3 -42 -5 -21 -12 -27 -35 -27 -29 0 -41 15 -41 49 0 39 52 54 73 20z"/>
<path d="M4965 3096 c-31 -22 -31 -131 0 -356 20 -149 28 -259 34 -466 8 -303
12 -324 71 -324 42 0 68 43 138 230 32 85 75 191 95 235 70 158 70 277 -2 395
-55 90 -191 249 -237 276 -47 27 -72 30 -99 10z"/>
</g>
</svg>
