<?xml version="1.0" standalone="no"?>
<!DOCTYPE svg PUBLIC "-//W3C//DTD SVG 20010904//EN"
 "http://www.w3.org/TR/2001/REC-SVG-20010904/DTD/svg10.dtd">
<svg version="1.0" xmlns="http://www.w3.org/2000/svg"
 width="612.000000pt" height="458.000000pt" viewBox="0 0 612.000000 458.000000"
 preserveAspectRatio="xMidYMid meet">

<g transform="translate(0.000000,458.000000) scale(0.100000,-0.100000)"
fill="#000000" stroke="none">
<path d="M3468 4140 c-214 -20 -325 -67 -617 -258 -63 -41 -131 -79 -150 -83
-20 -5 -93 -13 -162 -19 -170 -15 -220 -8 -629 87 -88 21 -247 20 -335 -1 -90
-22 -254 -103 -328 -161 -76 -60 -119 -121 -153 -219 -27 -75 -29 -91 -27
-216 0 -74 1 -216 2 -315 0 -198 14 -271 67 -348 l26 -38 -17 -82 c-32 -159
-125 -301 -239 -367 -84 -47 -142 -35 -119 26 6 17 5 17 -10 6 -8 -8 -17 -26
-19 -40 -4 -37 -49 -44 -66 -10 -9 19 -11 20 -11 5 -1 -14 -8 -18 -28 -15 -20
2 -33 13 -45 38 -16 31 -18 33 -18 11 0 -33 -15 -17 -28 29 l-10 35 -1 -50
c-1 -42 -3 -47 -13 -31 -6 11 -14 45 -18 75 l-6 56 -11 -35 -10 -35 -7 40
c-13 70 -14 71 -15 18 0 -28 4 -64 9 -79 26 -69 -34 -17 -70 61 l-19 39 -7
-28 c-12 -48 3 -133 32 -187 33 -61 70 -93 144 -128 73 -35 197 -36 278 -3 29
12 69 22 89 22 44 0 84 38 132 131 19 35 54 87 78 114 24 28 62 85 83 128 40
79 40 79 51 50 13 -34 3 -161 -17 -209 -18 -43 -18 -87 2 -149 11 -38 13 -73
8 -147 -4 -63 -2 -113 6 -147 10 -43 9 -58 -5 -103 -10 -29 -21 -57 -26 -62
-12 -13 -12 -53 0 -60 5 -3 11 -20 14 -38 20 -128 73 -180 189 -186 39 -3 80
0 91 6 12 6 31 12 42 14 30 5 30 40 1 104 -14 31 -26 64 -26 74 0 9 -13 36
-30 58 -16 23 -30 45 -30 50 0 4 -14 28 -32 52 -29 39 -32 49 -30 109 1 36 -5
88 -13 115 -11 37 -14 73 -9 131 6 77 8 82 38 101 17 11 57 31 88 43 63 25 88
52 136 147 28 56 71 104 93 104 16 0 26 -98 19 -208 -2 -33 4 -52 26 -84 26
-37 29 -51 34 -149 5 -92 9 -113 29 -139 21 -29 22 -38 16 -100 -6 -56 -3 -76
13 -113 11 -24 25 -48 31 -51 6 -4 17 -22 25 -40 22 -52 75 -79 167 -84 98 -6
139 2 174 33 l29 24 -24 34 c-13 18 -38 44 -56 56 -18 12 -35 32 -38 44 -3 13
-26 33 -53 49 -26 14 -69 49 -94 76 -42 45 -46 54 -52 113 -3 35 -16 91 -27
124 -45 127 -43 181 8 240 18 20 51 73 73 118 23 45 43 84 45 86 2 2 59 -22
128 -53 140 -62 240 -93 348 -105 72 -8 73 -9 138 -72 37 -35 81 -83 99 -107
32 -40 94 -82 124 -82 22 0 53 -42 66 -90 25 -87 90 -199 159 -274 45 -49 73
-89 84 -122 10 -28 39 -75 67 -106 55 -64 88 -147 97 -243 5 -51 1 -75 -26
-154 -26 -76 -30 -95 -19 -102 8 -5 17 -9 22 -9 4 0 7 -8 7 -18 0 -10 9 -35
20 -57 11 -22 20 -44 20 -51 0 -22 40 -62 82 -82 53 -24 179 -46 216 -37 15 4
34 13 43 21 9 8 20 14 25 13 22 -4 34 2 34 19 0 25 -42 106 -73 141 -15 17
-27 37 -27 45 0 7 -7 19 -15 26 -8 7 -15 18 -15 25 0 6 -10 20 -21 31 -54 48
-108 141 -139 242 -31 99 -32 105 -25 225 5 99 4 130 -9 166 -21 58 -20 102 4
186 11 38 20 82 20 97 0 17 5 28 14 28 7 0 25 9 39 20 14 11 28 20 32 20 4 0
3 -24 -1 -52 -11 -75 -6 -124 17 -179 31 -71 24 -178 -19 -282 -27 -66 -32
-91 -32 -160 0 -72 4 -90 33 -147 43 -88 90 -112 225 -118 90 -4 118 1 159 31
16 12 -5 55 -58 119 -22 26 -39 53 -39 61 0 8 -7 17 -15 21 -8 3 -15 11 -15
18 0 7 -22 32 -49 56 -41 34 -51 50 -56 85 -12 83 39 244 91 288 24 20 53 83
60 131 8 53 14 63 101 164 45 52 89 118 126 190 56 110 97 158 200 237 20 15
40 39 43 53 5 21 11 24 28 19 11 -3 46 -10 76 -14 30 -5 80 -19 110 -33 86
-40 206 -60 308 -53 48 4 98 11 112 16 49 18 110 121 110 185 0 13 -11 39 -24
58 -17 26 -25 55 -31 123 -14 151 -11 182 23 262 39 88 39 104 7 152 -23 32
-24 40 -14 63 7 14 15 26 18 26 3 -1 31 -14 61 -30 45 -25 66 -30 120 -29 80
0 127 16 153 50 18 25 18 28 2 59 -9 18 -35 52 -57 76 -35 39 -46 44 -82 44
-22 -1 -66 -9 -96 -20 -70 -24 -86 -25 -93 -1 -8 30 7 42 69 57 101 23 220 27
379 10 158 -16 200 -13 209 11 14 35 -113 120 -219 148 -71 18 -243 19 -367 1
-47 -6 -94 -9 -105 -5 -10 4 -32 8 -48 8 -17 1 -48 10 -70 21 -32 16 -59 20
-145 20 l-106 0 -60 64 c-99 105 -230 180 -369 209 -38 9 -143 47 -233 87
-100 44 -191 76 -235 85 -99 18 -255 24 -359 15z m-2156 -665 c-23 -26 -63
-78 -89 -117 -26 -38 -49 -64 -51 -58 -8 23 10 79 37 117 26 35 131 116 140
108 2 -2 -15 -25 -37 -50z m-332 -1485 c-6 -11 -18 -20 -28 -20 -13 0 -12 4 8
20 31 25 33 25 20 0z"/>
</g>
</svg>
