<?xml version="1.0" standalone="no"?>
<!DOCTYPE svg PUBLIC "-//W3C//DTD SVG 20010904//EN"
 "http://www.w3.org/TR/2001/REC-SVG-20010904/DTD/svg10.dtd">
<svg version="1.0" xmlns="http://www.w3.org/2000/svg"
 width="612.000000pt" height="514.000000pt" viewBox="0 0 612.000000 514.000000"
 preserveAspectRatio="xMidYMid meet">

<g transform="translate(0.000000,514.000000) scale(0.100000,-0.100000)"
fill="#000000" stroke="none">
<path d="M1213 4457 c-50 -33 -83 -64 -93 -84 -18 -38 -23 -39 -58 -14 -51 35
-64 34 -195 -19 -70 -27 -131 -50 -136 -50 -5 0 -31 -26 -58 -57 -94 -111
-104 -118 -215 -161 -69 -27 -122 -42 -151 -42 -35 0 -53 -6 -77 -27 -31 -26
-32 -29 -27 -81 4 -38 1 -64 -9 -83 -13 -25 -13 -33 1 -65 11 -28 25 -40 64
-56 35 -15 53 -30 65 -55 9 -18 30 -42 48 -54 34 -21 43 -21 199 -3 49 5 62 3
119 -26 37 -19 97 -38 144 -46 43 -8 86 -20 95 -26 64 -50 203 -173 211 -189
21 -38 130 -363 130 -386 0 -23 -127 -16 -224 12 -82 24 -89 24 -124 9 -79
-33 -112 -88 -112 -191 0 -46 3 -54 32 -76 l32 -25 -29 -38 c-32 -41 -35 -81
-17 -194 6 -36 14 -162 18 -280 4 -135 12 -229 20 -253 32 -91 266 -327 325
-327 12 0 21 10 26 27 10 38 9 165 -1 238 -8 56 -11 63 -70 117 -41 38 -55 58
-43 58 23 0 22 13 -3 35 -16 14 -20 30 -19 74 1 31 4 70 8 86 7 28 8 29 15 8
4 -12 21 -32 37 -44 16 -11 44 -44 63 -72 37 -59 224 -242 256 -252 12 -4 25
-4 28 0 13 13 7 278 -7 328 -12 42 -21 51 -72 83 -61 37 -70 48 -43 58 12 4 4
17 -33 54 -48 48 -92 116 -82 127 4 3 39 1 80 -5 92 -13 141 -45 272 -175 121
-121 165 -139 322 -139 61 0 162 5 225 12 63 6 190 12 282 12 l167 0 178 -55
c354 -111 507 -140 773 -151 l155 -6 66 -67 c82 -83 134 -171 199 -334 59
-148 90 -259 124 -445 13 -73 30 -139 37 -148 6 -8 16 -38 20 -66 15 -91 181
-395 212 -386 38 13 130 236 143 351 6 53 4 60 -40 141 -46 84 -50 106 -20
106 22 0 17 24 -12 51 -59 54 -92 193 -100 419 -5 136 -4 144 11 125 46 -55
119 -235 180 -445 20 -69 45 -134 55 -145 10 -11 21 -31 25 -45 22 -74 84
-170 165 -251 103 -104 167 -150 181 -128 32 51 57 317 37 390 -4 14 -32 57
-63 95 -30 38 -55 75 -55 81 0 7 11 15 25 19 36 9 31 27 -20 68 -79 65 -120
181 -149 426 -28 229 -30 307 -11 409 14 75 15 101 6 132 -14 46 -43 69 -88
69 -57 0 -140 38 -177 81 -50 59 -64 125 -76 359 -15 283 -33 360 -105 454
-40 53 -41 56 -19 99 40 80 114 127 210 135 78 6 131 -11 294 -95 144 -74 208
-93 305 -93 79 0 110 12 225 83 41 26 85 47 97 47 13 0 55 11 95 24 45 15 108
26 166 30 89 6 94 5 118 -19 13 -13 24 -31 24 -40 0 -9 5 -13 10 -10 17 11 11
79 -11 114 l-21 35 24 -16 c39 -25 70 -79 64 -110 -6 -30 5 -36 23 -14 15 18
17 41 8 81 l-7 30 23 -28 c21 -25 25 -27 31 -11 4 9 0 41 -9 70 -21 74 -86
152 -155 187 -50 26 -62 28 -140 24 -60 -2 -101 -10 -137 -26 -69 -30 -135
-102 -158 -170 -33 -100 -130 -169 -249 -178 -82 -7 -127 7 -232 72 -194 121
-314 162 -450 152 -117 -9 -206 -66 -277 -180 -22 -36 -34 -46 -46 -41 -72 31
-125 36 -381 39 -196 2 -304 8 -416 23 l-151 20 -154 93 c-334 201 -511 292
-634 326 -27 7 -129 18 -225 24 -272 15 -301 23 -490 125 -88 48 -188 97 -222
109 l-61 22 -42 -43 c-59 -62 -87 -59 -38 4 76 99 98 183 72 275 -14 50 -32
48 -126 -16z m-233 -137 c0 -11 -6 -36 -14 -54 -12 -29 -26 -38 -97 -67 -67
-28 -98 -48 -160 -106 -70 -65 -85 -74 -162 -98 -112 -34 -122 -45 -114 -136
10 -113 49 -142 147 -108 57 20 63 20 123 5 35 -9 82 -16 104 -16 60 0 89 -14
97 -47 14 -54 31 -70 86 -77 46 -6 57 -4 98 23 76 48 84 46 96 -23 10 -56 14
-63 66 -102 123 -95 150 -124 166 -182 11 -37 31 -70 65 -108 61 -68 63 -95
13 -177 -32 -52 -35 -63 -30 -102 4 -24 14 -49 21 -55 8 -7 15 -29 15 -50 0
-36 -2 -38 -43 -48 -24 -6 -51 -20 -61 -31 -24 -27 -45 -101 -36 -127 9 -22
72 -44 128 -44 16 0 50 -11 76 -25 98 -52 203 -20 209 65 2 34 4 35 46 38 26
2 52 -3 67 -12 37 -25 100 -116 124 -178 13 -35 34 -69 56 -87 69 -61 176 -34
262 63 66 76 66 103 0 187 -44 57 -57 98 -58 192 0 81 19 113 86 144 60 27
106 32 128 14 20 -17 43 -93 51 -167 6 -55 4 -67 -21 -115 -24 -47 -28 -69
-32 -165 -5 -133 4 -157 81 -209 60 -40 109 -45 197 -19 63 19 78 14 151 -48
43 -36 57 -42 108 -46 44 -3 69 1 109 18 76 33 102 68 102 137 0 44 4 58 23
73 46 39 183 155 195 167 30 29 92 4 79 -31 -8 -22 28 -63 67 -76 18 -6 44
-22 56 -35 27 -29 71 -33 95 -8 14 13 16 32 14 92 -4 117 -2 125 40 172 95
109 95 169 -1 292 l-30 38 23 79 c21 73 21 80 6 103 -10 16 -35 29 -75 41 -85
23 -141 72 -126 109 16 41 196 70 292 47 51 -12 132 -61 132 -80 0 -5 -25 -28
-55 -50 -40 -29 -57 -50 -66 -78 -14 -48 2 -115 34 -137 12 -8 51 -34 87 -58
62 -40 65 -44 74 -93 5 -33 4 -70 -4 -107 -11 -56 -12 -57 -46 -57 -57 0 -103
-25 -119 -64 -16 -38 -22 -311 -7 -331 13 -18 38 -34 74 -49 33 -14 37 -14
103 20 42 21 83 34 107 34 41 0 118 -27 118 -41 0 -5 15 -18 33 -29 57 -35
186 -25 210 16 4 8 21 14 37 14 40 0 53 -27 40 -82 -18 -79 -11 -220 25 -470
38 -268 47 -300 101 -388 l36 -58 -16 -54 c-15 -54 -63 -111 -115 -138 -31
-16 -31 -16 -87 160 -53 171 -103 304 -155 418 -70 153 -199 252 -372 287 -50
10 -210 21 -450 30 -252 10 -393 20 -437 30 -36 8 -166 50 -290 92 -260 88
-297 93 -545 73 -261 -20 -467 -24 -511 -10 -64 20 -133 70 -186 133 -27 33
-47 61 -45 63 2 3 32 -3 67 -12 60 -15 116 -13 106 5 -3 5 -23 12 -43 16 -21
4 -84 22 -139 41 -59 19 -141 38 -195 44 -133 15 -153 23 -174 70 -12 26 -25
40 -37 40 -27 0 -23 -28 17 -127 19 -48 35 -93 35 -100 0 -8 12 -26 26 -40 29
-29 44 -77 37 -117 -7 -36 -66 -101 -85 -94 -35 14 -96 127 -209 392 -22 51
-52 99 -83 133 -49 54 -49 54 -43 109 7 65 13 75 67 99 40 18 42 18 110 -4 58
-19 88 -23 206 -22 149 2 153 3 154 56 0 17 14 68 30 115 16 47 30 87 30 89 0
11 -42 -53 -76 -116 -21 -40 -42 -73 -45 -73 -18 0 -44 65 -79 201 -22 83 -50
169 -62 191 -27 47 -217 214 -268 236 -23 9 -53 12 -89 9 -59 -6 -72 -2 -160
57 -59 40 -97 45 -155 21 -20 -9 -57 -16 -82 -17 -44 -2 -48 0 -97 53 -29 31
-64 61 -80 67 -39 16 -55 56 -33 81 13 14 14 24 6 45 -24 65 4 109 64 99 28
-4 64 6 172 48 l136 54 55 79 c30 43 63 80 72 83 9 2 60 24 112 48 109 50 119
52 119 25z m-34 -1773 c15 -28 41 -86 59 -129 l33 -77 -3 -168 -3 -167 -47
-65 c-27 -36 -50 -60 -55 -55 -17 18 -30 142 -30 304 -1 149 -4 200 -26 338
-5 33 -3 47 11 62 23 25 30 20 61 -43z m3089 -588 c70 -12 95 -24 161 -77 l50
-39 13 -139 c16 -181 47 -359 78 -457 l24 -78 -26 -45 c-28 -48 -85 -83 -136
-84 -24 0 -27 4 -33 53 -9 68 -69 303 -108 426 -51 162 -112 281 -207 405
l-44 59 84 -7 c46 -4 111 -12 144 -17z"/>
<path d="M313 3901 c-29 -24 -29 -31 1 -31 24 0 56 23 56 41 0 15 -34 9 -57
-10z"/>
<path d="M3442 2518 c-5 -7 -13 -32 -17 -55 -3 -22 -17 -56 -31 -74 -29 -40
-31 -78 -4 -112 42 -53 111 -57 238 -16 57 19 62 23 62 50 0 24 -7 34 -32 47
-36 19 -85 66 -136 130 -33 42 -61 53 -80 30z"/>
</g>
</svg>
